# xmcd
#
# Track frame offsets: 
#        150
#        15041
#        30855
#        44637
#        61204
#        81476
#        93260
#        107427
#        112647
#        138763
#        156391
#
# Disc length: 2406 seconds
#
# Revision: 0
# Processed by: cddbd v1.5.2PL0 Copyright (c) Steve Scherf et al.
# Submitted via: ExactAudioCopy v0.99pb3
#
DISCID=7309640b
DTITLE=Steve Hill - Devil At My Heels
DYEAR=2007
DGENRE=Blues
TTITLE0=NASA Made
TTITLE1=Devil At My Heels
TTITLE2=Gotta Be Strong
TTITLE3=Control
TTITLE4=Even
TTITLE5=Long Road
TTITLE6=Roll Away the Stone
TTITLE7=Phoenix
TTITLE8=Make it Clear
TTITLE9=Get Over You
TTITLE10=Happy Face
EXTD=
EXTT0=
EXTT1=
EXTT2=
EXTT3=
EXTT4=
EXTT5=
EXTT6=
EXTT7=
EXTT8=
EXTT9=
EXTT10=
PLAYORDER=
